<mxfile host="app.diagrams.net" agent="Mozilla/5.0 (Macintosh; Intel Mac OS X 10_15_7) AppleWebKit/537.36 (KHTML, like Gecko) Chrome/134.0.0.0 Safari/537.36" version="26.1.0">
  <diagram id="R2lEEEUBdFMjLlhIrx00" name="Page-1">
    <mxGraphModel dx="793" dy="573" grid="1" gridSize="5" guides="1" tooltips="1" connect="1" arrows="1" fold="1" page="1" pageScale="1" pageWidth="850" pageHeight="1100" math="0" shadow="0" adaptiveColors="auto" extFonts="Permanent Marker^https://fonts.googleapis.com/css?family=Permanent+Marker">
      <root>
        <mxCell id="0" />
        <mxCell id="1" parent="0" />
        <mxCell id="Z7LDG79j3NjasXDvrG4u-64" style="rounded=0;orthogonalLoop=1;jettySize=auto;html=1;endArrow=none;startFill=0;shape=link;fillColor=#dae8fc;strokeColor=#6c8ebf;" parent="1" source="Z7LDG79j3NjasXDvrG4u-63" target="Z7LDG79j3NjasXDvrG4u-45" edge="1">
          <mxGeometry relative="1" as="geometry" />
        </mxCell>
        <mxCell id="Z7LDG79j3NjasXDvrG4u-52" style="rounded=0;orthogonalLoop=1;jettySize=auto;html=1;entryX=0;entryY=0.5;entryDx=0;entryDy=0;fillColor=#dae8fc;strokeColor=#6c8ebf;endArrow=none;startFill=0;" parent="1" source="Z7LDG79j3NjasXDvrG4u-46" target="Z7LDG79j3NjasXDvrG4u-41" edge="1">
          <mxGeometry relative="1" as="geometry" />
        </mxCell>
        <mxCell id="Z7LDG79j3NjasXDvrG4u-66" style="rounded=0;orthogonalLoop=1;jettySize=auto;html=1;endArrow=none;startFill=1;startArrow=classicThin;fillColor=#dae8fc;strokeColor=#6c8ebf;" parent="1" source="Z7LDG79j3NjasXDvrG4u-75" target="Z7LDG79j3NjasXDvrG4u-63" edge="1">
          <mxGeometry relative="1" as="geometry">
            <mxPoint x="315" y="600" as="sourcePoint" />
          </mxGeometry>
        </mxCell>
        <mxCell id="Z7LDG79j3NjasXDvrG4u-83" style="edgeStyle=orthogonalEdgeStyle;rounded=0;orthogonalLoop=1;jettySize=auto;html=1;endArrow=blockThin;endFill=0;fillColor=#dae8fc;strokeColor=#6c8ebf;" parent="1" source="Z7LDG79j3NjasXDvrG4u-107" target="Z7LDG79j3NjasXDvrG4u-75" edge="1">
          <mxGeometry relative="1" as="geometry">
            <mxPoint x="669.9999999999998" y="592" as="sourcePoint" />
            <Array as="points">
              <mxPoint x="670" y="490" />
            </Array>
          </mxGeometry>
        </mxCell>
        <mxCell id="Z7LDG79j3NjasXDvrG4u-56" style="rounded=0;orthogonalLoop=1;jettySize=auto;html=1;endArrow=none;startFill=0;fillColor=#dae8fc;strokeColor=#6c8ebf;" parent="1" source="sdOK8D_c6vdAgy1qnKHL-54" target="sdOK8D_c6vdAgy1qnKHL-63" edge="1">
          <mxGeometry relative="1" as="geometry" />
        </mxCell>
        <mxCell id="sdOK8D_c6vdAgy1qnKHL-54" value="org_unit" style="swimlane;fontStyle=2;childLayout=stackLayout;horizontal=1;startSize=26;horizontalStack=0;resizeParent=1;resizeParentMax=0;resizeLast=0;collapsible=1;marginBottom=0;align=center;fontSize=14;fillColor=#dae8fc;strokeColor=#6c8ebf;" parent="1" vertex="1">
          <mxGeometry x="335" y="100" width="160" height="86" as="geometry" />
        </mxCell>
        <mxCell id="sdOK8D_c6vdAgy1qnKHL-55" value="&lt;u&gt;unit_name&lt;/u&gt;" style="text;strokeColor=none;fillColor=none;spacingLeft=4;spacingRight=4;overflow=hidden;rotatable=0;points=[[0,0.5],[1,0.5]];portConstraint=eastwest;fontSize=12;whiteSpace=wrap;html=1;" parent="sdOK8D_c6vdAgy1qnKHL-54" vertex="1">
          <mxGeometry y="26" width="160" height="30" as="geometry" />
        </mxCell>
        <mxCell id="sdOK8D_c6vdAgy1qnKHL-57" value="unit_type" style="text;strokeColor=none;fillColor=none;spacingLeft=4;spacingRight=4;overflow=hidden;rotatable=0;points=[[0,0.5],[1,0.5]];portConstraint=eastwest;fontSize=12;whiteSpace=wrap;html=1;" parent="sdOK8D_c6vdAgy1qnKHL-54" vertex="1">
          <mxGeometry y="56" width="160" height="30" as="geometry" />
        </mxCell>
        <mxCell id="sdOK8D_c6vdAgy1qnKHL-63" value="res_org" style="shape=rhombus;perimeter=rhombusPerimeter;whiteSpace=wrap;html=1;align=center;fillColor=#dae8fc;strokeColor=#6c8ebf;" parent="1" vertex="1">
          <mxGeometry x="355" y="235" width="120" height="60" as="geometry" />
        </mxCell>
        <mxCell id="Z7LDG79j3NjasXDvrG4u-43" style="rounded=0;orthogonalLoop=1;jettySize=auto;html=1;entryX=1;entryY=0.5;entryDx=0;entryDy=0;endArrow=none;startFill=0;fillColor=#dae8fc;strokeColor=#6c8ebf;" parent="1" source="Z7LDG79j3NjasXDvrG4u-6" target="Z7LDG79j3NjasXDvrG4u-41" edge="1">
          <mxGeometry relative="1" as="geometry" />
        </mxCell>
        <mxCell id="Z7LDG79j3NjasXDvrG4u-6" value="vehicle" style="swimlane;fontStyle=2;childLayout=stackLayout;horizontal=1;startSize=26;horizontalStack=0;resizeParent=1;resizeParentMax=0;resizeLast=0;collapsible=1;marginBottom=0;align=center;fontSize=14;fillColor=#dae8fc;strokeColor=#6c8ebf;" parent="1" vertex="1">
          <mxGeometry x="615" y="729" width="160" height="86" as="geometry">
            <mxRectangle x="575" y="810" width="80" height="35" as="alternateBounds" />
          </mxGeometry>
        </mxCell>
        <mxCell id="Z7LDG79j3NjasXDvrG4u-7" value="&lt;u&gt;vehicle_number&lt;/u&gt;" style="text;strokeColor=none;fillColor=none;spacingLeft=4;spacingRight=4;overflow=hidden;rotatable=0;points=[[0,0.5],[1,0.5]];portConstraint=eastwest;fontSize=12;whiteSpace=wrap;html=1;" parent="Z7LDG79j3NjasXDvrG4u-6" vertex="1">
          <mxGeometry y="26" width="160" height="30" as="geometry" />
        </mxCell>
        <mxCell id="Z7LDG79j3NjasXDvrG4u-8" value="vehicle_type" style="text;strokeColor=none;fillColor=none;spacingLeft=4;spacingRight=4;overflow=hidden;rotatable=0;points=[[0,0.5],[1,0.5]];portConstraint=eastwest;fontSize=12;whiteSpace=wrap;html=1;" parent="Z7LDG79j3NjasXDvrG4u-6" vertex="1">
          <mxGeometry y="56" width="160" height="30" as="geometry" />
        </mxCell>
        <mxCell id="Z7LDG79j3NjasXDvrG4u-36" value="" style="group" parent="1" vertex="1" connectable="0">
          <mxGeometry x="350" y="750" width="170" height="95" as="geometry" />
        </mxCell>
        <mxCell id="Z7LDG79j3NjasXDvrG4u-35" value="" style="whiteSpace=wrap;html=1;fillColor=none;strokeColor=#6c8ebf;" parent="Z7LDG79j3NjasXDvrG4u-36" vertex="1">
          <mxGeometry width="170" height="95" as="geometry" />
        </mxCell>
        <mxCell id="Z7LDG79j3NjasXDvrG4u-27" value="access" style="swimlane;fontStyle=0;childLayout=stackLayout;horizontal=1;startSize=26;horizontalStack=0;resizeParent=1;resizeParentMax=0;resizeLast=0;collapsible=1;marginBottom=0;align=center;fontSize=14;swimlaneFillColor=default;swimlaneLine=1;strokeColor=#6c8ebf;perimeterSpacing=0;strokeWidth=1;fillColor=#dae8fc;swimlaneBody=1;swimlaneHead=1;editable=1;movable=1;resizable=1;rotatable=1;deletable=1;locked=0;connectable=1;" parent="Z7LDG79j3NjasXDvrG4u-36" vertex="1">
          <mxGeometry x="5" y="3.8" width="160" height="86.2" as="geometry">
            <mxRectangle x="860" y="475" width="60" height="30" as="alternateBounds" />
          </mxGeometry>
        </mxCell>
        <mxCell id="Z7LDG79j3NjasXDvrG4u-28" value="entry_time" style="text;strokeColor=none;fillColor=none;spacingLeft=4;spacingRight=4;overflow=hidden;rotatable=0;points=[[0,0.5],[1,0.5]];portConstraint=eastwest;fontSize=12;whiteSpace=wrap;html=1;" parent="Z7LDG79j3NjasXDvrG4u-27" vertex="1">
          <mxGeometry y="26" width="160" height="29" as="geometry" />
        </mxCell>
        <mxCell id="Z7LDG79j3NjasXDvrG4u-29" value="exit_time" style="text;strokeColor=none;fillColor=none;spacingLeft=4;spacingRight=4;overflow=hidden;rotatable=0;points=[[0,0.5],[1,0.5]];portConstraint=eastwest;fontSize=12;whiteSpace=wrap;html=1;" parent="Z7LDG79j3NjasXDvrG4u-27" vertex="1">
          <mxGeometry y="55" width="160" height="31.2" as="geometry" />
        </mxCell>
        <mxCell id="Z7LDG79j3NjasXDvrG4u-91" style="rounded=0;orthogonalLoop=1;jettySize=auto;html=1;endArrow=none;startFill=0;fillColor=#dae8fc;strokeColor=#6c8ebf;" parent="1" source="Z7LDG79j3NjasXDvrG4u-41" target="Z7LDG79j3NjasXDvrG4u-90" edge="1">
          <mxGeometry relative="1" as="geometry" />
        </mxCell>
        <mxCell id="Z7LDG79j3NjasXDvrG4u-41" value="visitor_accesses" style="shape=rhombus;perimeter=rhombusPerimeter;whiteSpace=wrap;html=1;align=center;fillColor=#dae8fc;strokeColor=#6c8ebf;" parent="1" vertex="1">
          <mxGeometry x="385" y="905" width="130" height="60" as="geometry" />
        </mxCell>
        <mxCell id="Z7LDG79j3NjasXDvrG4u-84" style="rounded=0;orthogonalLoop=1;jettySize=auto;html=1;endArrow=none;startFill=0;fillColor=#dae8fc;strokeColor=#6c8ebf;" parent="1" source="Z7LDG79j3NjasXDvrG4u-11" target="Z7LDG79j3NjasXDvrG4u-75" edge="1">
          <mxGeometry relative="1" as="geometry" />
        </mxCell>
        <mxCell id="Z7LDG79j3NjasXDvrG4u-11" value="res_accesses" style="shape=rhombus;perimeter=rhombusPerimeter;whiteSpace=wrap;html=1;align=center;fillColor=#dae8fc;strokeColor=#6c8ebf;" parent="1" vertex="1">
          <mxGeometry x="363" y="640" width="125" height="60" as="geometry" />
        </mxCell>
        <mxCell id="Z7LDG79j3NjasXDvrG4u-63" value="res_visitors" style="shape=rhombus;perimeter=rhombusPerimeter;whiteSpace=wrap;html=1;align=center;fillColor=#dae8fc;strokeColor=#6c8ebf;" parent="1" vertex="1">
          <mxGeometry x="210" y="690" width="120" height="60" as="geometry" />
        </mxCell>
        <mxCell id="Z7LDG79j3NjasXDvrG4u-81" style="rounded=0;orthogonalLoop=1;jettySize=auto;html=1;shape=link;fillColor=#dae8fc;strokeColor=#6c8ebf;" parent="1" source="Z7LDG79j3NjasXDvrG4u-75" target="sdOK8D_c6vdAgy1qnKHL-63" edge="1">
          <mxGeometry relative="1" as="geometry" />
        </mxCell>
        <mxCell id="Z7LDG79j3NjasXDvrG4u-82" style="edgeStyle=orthogonalEdgeStyle;rounded=0;orthogonalLoop=1;jettySize=auto;html=1;endArrow=none;startFill=0;startArrow=blockThin;fillColor=#dae8fc;strokeColor=#6c8ebf;" parent="1" source="Z7LDG79j3NjasXDvrG4u-75" target="Z7LDG79j3NjasXDvrG4u-101" edge="1">
          <mxGeometry relative="1" as="geometry">
            <mxPoint x="150.0000000000001" y="600" as="targetPoint" />
          </mxGeometry>
        </mxCell>
        <mxCell id="Z7LDG79j3NjasXDvrG4u-75" value="resident" style="swimlane;fontStyle=2;childLayout=stackLayout;horizontal=1;startSize=26;horizontalStack=0;resizeParent=1;resizeParentMax=0;resizeLast=0;collapsible=1;marginBottom=0;align=center;fontSize=14;fillColor=#dae8fc;strokeColor=#6c8ebf;" parent="1" vertex="1">
          <mxGeometry x="335" y="335" width="160" height="240" as="geometry" />
        </mxCell>
        <mxCell id="Z7LDG79j3NjasXDvrG4u-76" value="&lt;u&gt;resident_id&lt;/u&gt;" style="text;strokeColor=none;fillColor=none;spacingLeft=4;spacingRight=4;overflow=hidden;rotatable=0;points=[[0,0.5],[1,0.5]];portConstraint=eastwest;fontSize=12;whiteSpace=wrap;html=1;" parent="Z7LDG79j3NjasXDvrG4u-75" vertex="1">
          <mxGeometry y="26" width="160" height="30" as="geometry" />
        </mxCell>
        <mxCell id="Z7LDG79j3NjasXDvrG4u-77" value="name" style="text;strokeColor=none;fillColor=none;spacingLeft=4;spacingRight=4;overflow=hidden;rotatable=0;points=[[0,0.5],[1,0.5]];portConstraint=eastwest;fontSize=12;whiteSpace=wrap;html=1;" parent="Z7LDG79j3NjasXDvrG4u-75" vertex="1">
          <mxGeometry y="56" width="160" height="30" as="geometry" />
        </mxCell>
        <mxCell id="Z7LDG79j3NjasXDvrG4u-78" value="home_address&lt;div&gt;&lt;span style=&quot;white-space: pre;&quot;&gt;&#x9;&lt;/span&gt;address_line_1&lt;br&gt;&lt;/div&gt;&lt;div&gt;&lt;span style=&quot;white-space: pre;&quot;&gt;&#x9;&lt;/span&gt;address_line_2&lt;br&gt;&lt;/div&gt;&lt;div&gt;&lt;span style=&quot;white-space: pre;&quot;&gt;&#x9;&lt;/span&gt;city&lt;br&gt;&lt;/div&gt;&lt;div&gt;&lt;span style=&quot;white-space: pre;&quot;&gt;&#x9;&lt;/span&gt;zip&lt;br&gt;&lt;/div&gt;&lt;div&gt;&lt;span style=&quot;white-space: pre;&quot;&gt;&#x9;&lt;/span&gt;state&lt;/div&gt;" style="text;strokeColor=none;fillColor=none;spacingLeft=4;spacingRight=4;overflow=hidden;rotatable=0;points=[[0,0.5],[1,0.5]];portConstraint=eastwest;fontSize=12;whiteSpace=wrap;html=1;" parent="Z7LDG79j3NjasXDvrG4u-75" vertex="1">
          <mxGeometry y="86" width="160" height="94" as="geometry" />
        </mxCell>
        <mxCell id="Z7LDG79j3NjasXDvrG4u-80" value="email" style="text;strokeColor=none;fillColor=none;spacingLeft=4;spacingRight=4;overflow=hidden;rotatable=0;points=[[0,0.5],[1,0.5]];portConstraint=eastwest;fontSize=12;whiteSpace=wrap;html=1;" parent="Z7LDG79j3NjasXDvrG4u-75" vertex="1">
          <mxGeometry y="180" width="160" height="30" as="geometry" />
        </mxCell>
        <mxCell id="Z7LDG79j3NjasXDvrG4u-110" value="&lt;strike&gt;phone&lt;/strike&gt;" style="text;strokeColor=none;fillColor=none;spacingLeft=4;spacingRight=4;overflow=hidden;rotatable=0;points=[[0,0.5],[1,0.5]];portConstraint=eastwest;fontSize=12;whiteSpace=wrap;html=1;" parent="Z7LDG79j3NjasXDvrG4u-75" vertex="1">
          <mxGeometry y="210" width="160" height="30" as="geometry" />
        </mxCell>
        <mxCell id="Z7LDG79j3NjasXDvrG4u-85" style="rounded=0;orthogonalLoop=1;jettySize=auto;html=1;endArrow=none;startFill=0;fillColor=#dae8fc;strokeColor=#6c8ebf;" parent="1" source="Z7LDG79j3NjasXDvrG4u-11" target="Z7LDG79j3NjasXDvrG4u-35" edge="1">
          <mxGeometry relative="1" as="geometry" />
        </mxCell>
        <mxCell id="Z7LDG79j3NjasXDvrG4u-88" style="rounded=0;orthogonalLoop=1;jettySize=auto;html=1;endArrow=none;startFill=0;fillColor=#dae8fc;strokeColor=#6c8ebf;" parent="1" source="Z7LDG79j3NjasXDvrG4u-35" target="Z7LDG79j3NjasXDvrG4u-41" edge="1">
          <mxGeometry relative="1" as="geometry" />
        </mxCell>
        <mxCell id="Z7LDG79j3NjasXDvrG4u-90" value="password" style="ellipse;whiteSpace=wrap;html=1;align=center;fillColor=none;strokeColor=#6c8ebf;" parent="1" vertex="1">
          <mxGeometry x="460" y="990" width="100" height="40" as="geometry" />
        </mxCell>
        <mxCell id="Z7LDG79j3NjasXDvrG4u-98" style="rounded=0;orthogonalLoop=1;jettySize=auto;html=1;exitX=1;exitY=0.5;exitDx=0;exitDy=0;endArrow=none;startFill=0;startArrow=none;fillColor=#dae8fc;strokeColor=#6c8ebf;" parent="1" source="Z7LDG79j3NjasXDvrG4u-11" target="Z7LDG79j3NjasXDvrG4u-6" edge="1">
          <mxGeometry relative="1" as="geometry">
            <mxPoint x="597.4557522123894" y="750.2212389380531" as="sourcePoint" />
          </mxGeometry>
        </mxCell>
        <mxCell id="Z7LDG79j3NjasXDvrG4u-101" value="student" style="swimlane;fontStyle=0;childLayout=stackLayout;horizontal=1;startSize=26;horizontalStack=0;resizeParent=1;resizeParentMax=0;resizeLast=0;collapsible=1;marginBottom=0;align=center;fontSize=14;fillColor=#dae8fc;strokeColor=#6c8ebf;" parent="1" vertex="1">
          <mxGeometry x="75" y="600" width="160" height="56" as="geometry" />
        </mxCell>
        <mxCell id="Z7LDG79j3NjasXDvrG4u-104" value="college_address" style="text;strokeColor=none;fillColor=none;spacingLeft=4;spacingRight=4;overflow=hidden;rotatable=0;points=[[0,0.5],[1,0.5]];portConstraint=eastwest;fontSize=12;whiteSpace=wrap;html=1;" parent="Z7LDG79j3NjasXDvrG4u-101" vertex="1">
          <mxGeometry y="26" width="160" height="30" as="geometry" />
        </mxCell>
        <mxCell id="Z7LDG79j3NjasXDvrG4u-107" value="faculty" style="swimlane;fontStyle=0;childLayout=stackLayout;horizontal=1;startSize=26;horizontalStack=0;resizeParent=1;resizeParentMax=0;resizeLast=0;collapsible=1;marginBottom=0;align=center;fontSize=14;fillColor=#dae8fc;strokeColor=#6c8ebf;" parent="1" vertex="1">
          <mxGeometry x="590" y="600" width="160" height="56" as="geometry" />
        </mxCell>
        <mxCell id="Z7LDG79j3NjasXDvrG4u-108" value="college_address" style="text;strokeColor=none;fillColor=none;spacingLeft=4;spacingRight=4;overflow=hidden;rotatable=0;points=[[0,0.5],[1,0.5]];portConstraint=eastwest;fontSize=12;whiteSpace=wrap;html=1;" parent="Z7LDG79j3NjasXDvrG4u-107" vertex="1">
          <mxGeometry y="26" width="160" height="30" as="geometry" />
        </mxCell>
        <mxCell id="Z7LDG79j3NjasXDvrG4u-44" value="" style="group" parent="1" vertex="1" connectable="0">
          <mxGeometry x="110" y="795" width="170" height="125" as="geometry" />
        </mxCell>
        <mxCell id="Z7LDG79j3NjasXDvrG4u-45" value="" style="whiteSpace=wrap;html=1;fillColor=light-dark(#FFFFFF,#000000);strokeColor=#6c8ebf;fillStyle=solid;" parent="Z7LDG79j3NjasXDvrG4u-44" vertex="1">
          <mxGeometry width="170" height="125" as="geometry" />
        </mxCell>
        <mxCell id="Z7LDG79j3NjasXDvrG4u-46" value="visitor" style="swimlane;fontStyle=0;childLayout=stackLayout;horizontal=1;startSize=26;horizontalStack=0;resizeParent=1;resizeParentMax=0;resizeLast=0;collapsible=1;marginBottom=0;align=center;fontSize=14;swimlaneFillColor=default;swimlaneLine=1;strokeColor=#6c8ebf;perimeterSpacing=0;strokeWidth=1;fillColor=#dae8fc;swimlaneBody=1;swimlaneHead=1;" parent="Z7LDG79j3NjasXDvrG4u-44" vertex="1">
          <mxGeometry x="5" y="5" width="160" height="116" as="geometry">
            <mxRectangle x="860" y="475" width="60" height="30" as="alternateBounds" />
          </mxGeometry>
        </mxCell>
        <mxCell id="Z7LDG79j3NjasXDvrG4u-47" value="{ name }" style="text;strokeColor=none;fillColor=none;spacingLeft=4;spacingRight=4;overflow=hidden;rotatable=0;points=[[0,0.5],[1,0.5]];portConstraint=eastwest;fontSize=12;whiteSpace=wrap;html=1;" parent="Z7LDG79j3NjasXDvrG4u-46" vertex="1">
          <mxGeometry y="26" width="160" height="30" as="geometry" />
        </mxCell>
        <mxCell id="Z7LDG79j3NjasXDvrG4u-48" value="from_address" style="text;strokeColor=none;fillColor=none;spacingLeft=4;spacingRight=4;overflow=hidden;rotatable=0;points=[[0,0.5],[1,0.5]];portConstraint=eastwest;fontSize=12;whiteSpace=wrap;html=1;" parent="Z7LDG79j3NjasXDvrG4u-46" vertex="1">
          <mxGeometry y="56" width="160" height="30" as="geometry" />
        </mxCell>
        <mxCell id="Z7LDG79j3NjasXDvrG4u-49" value="expected_stay" style="text;strokeColor=none;fillColor=none;spacingLeft=4;spacingRight=4;overflow=hidden;rotatable=0;points=[[0,0.5],[1,0.5]];portConstraint=eastwest;fontSize=12;whiteSpace=wrap;html=1;" parent="Z7LDG79j3NjasXDvrG4u-46" vertex="1">
          <mxGeometry y="86" width="160" height="30" as="geometry" />
        </mxCell>
      </root>
    </mxGraphModel>
  </diagram>
</mxfile>
